<svg xmlns="http://www.w3.org/2000/svg" viewBox="0 0 512 512"><defs><linearGradient id="g" x1="0" y1="0" x2="1" y2="1"><stop offset="0" stop-color="#ff5a63"/><stop offset="1" stop-color="#f4303c"/></linearGradient></defs><g transform="translate(256,256) scale(0.92) translate(-256,-256)"><path d="M256,64 C176,64 112,128 112,208 C112,312 256,448 256,448 C256,448 400,312 400,208 C400,128 336,64 256,64 Z" fill="url(#g)"/><rect x="212" y="168" width="88" height="52" rx="8" fill="#ffffff"/><path d="M196,226 h120 l6,12 a4,4 0 0 1 -4,6 H194 a4,4 0 0 1 -4,-6 Z" fill="#ffffff"/></g></svg>